<!--?xml version="1.0" encoding="UTF-8"?-->
<svg width="36px" height="32px" viewBox="0 0 36 32" version="1.1" xmlns="http://www.w3.org/2000/svg" xmlns:xlink="http://www.w3.org/1999/xlink">
  <g stroke="none" stroke-width="1" fill="none" fill-rule="evenodd" transform="translate(-578.000000, -4830.000000)">
    <path d="M610.98125,4847.21175 C610.79425,4847.39675 610.59525,4847.56475 610.39825,4847.73275 L610.42525,4847.75975 L595.98625,4862.01875 L581.54625,4847.75975 L581.57425,4847.73275 C581.37725,4847.56475 581.17725,4847.39675 580.99025,4847.21175 C577.00325,4843.27375 577.00325,4836.89075 580.99025,4832.95275 C584.97825,4829.01575 591.44325,4829.01575 595.43025,4832.95275 C595.61825,4833.13775 595.78825,4833.33275 595.95825,4833.52875 L595.98625,4833.50075 L596.01325,4833.52875 C596.18325,4833.33275 596.35325,4833.13775 596.54125,4832.95275 C600.52925,4829.01575 606.99425,4829.01575 610.98125,4832.95275 C614.96825,4836.89075 614.96825,4843.27375 610.98125,4847.21175" fill="#979797" class="j-like-icon"></path>
  </g>
</svg>