<!--?xml version="1.0" encoding="UTF-8"?-->
<svg width="28px" height="28px" viewBox="0 0 28 28" version="1.1" xmlns="http://www.w3.org/2000/svg" xmlns:xlink="http://www.w3.org/1999/xlink">
  <g stroke="none" stroke-width="1" fill="none" fill-rule="evenodd" transform="translate(-43.000000, -2141.000000)">
    <path d="M57,2169 C49.2680135,2169 43,2162.73199 43,2155 C43,2147.26801 49.2680135,2141 57,2141 C64.7319865,2141 71,2147.26801 71,2155 C71,2162.73199 64.7319865,2169 57,2169 Z M63.4846707,2156.30351 C65.2088135,2154.58164 65.2088135,2151.79072 63.4846707,2150.06885 C61.760528,2148.34742 58.9647962,2148.34742 57.240221,2150.06885 C57.1589221,2150.14974 57.0854071,2150.235 57.0118921,2150.3207 L57.0002162,2150.30846 L56.9881079,2150.3207 C56.9145929,2150.235 56.8410779,2150.14974 56.759779,2150.06885 C55.0356362,2148.34742 52.2399044,2148.34742 50.5153293,2150.06885 C48.7911865,2151.79072 48.7911865,2154.58164 50.5153293,2156.30351 C50.5961958,2156.3844 50.682684,2156.45786 50.7678749,2156.53131 L50.7557665,2156.54312 L57.0002162,2162.77778 L63.2442335,2156.54312 L63.2325576,2156.53131 C63.3177485,2156.45786 63.4038042,2156.3844 63.4846707,2156.30351 Z" fill="#050202" class="j-like-list-icon"></path>
  </g>
</svg>
    